<svg id="Capa_1" enable-background="new 0 0 509.555 509.555" height="512" viewBox="0 0 509.555 509.555" width="512" xmlns="http://www.w3.org/2000/svg"><g id="XMLID_3091_"><path id="XMLID_3446_" d="m196.755 313.246-38.47-56.373-59.684-41.781c-4.514 13.544-32.599 97.798-37.123 111.37l25.212 37.457 35.819 23.573 45.824-27.492z" fill="#ffd845"/><path id="XMLID_3448_" d="m50.871 358.281c-1.423 4.268-49.003 147.008-50.425 151.273l61.031-43.136 39.818-57.714-14.605-32.785z" fill="#ffd845"/><g id="XMLID_3252_"><path id="XMLID_3328_" d="m207.565 145.606-21.212-21.213c17.022-17.023 6.009-31.465 30.398-55.855 13.68-13.679 25.386-16.695 34.792-19.119 7.651-1.972 13.179-3.396 21.064-11.28 10.004-10.005 9.625-16.271 13.045-27.507l28.699 8.736c-3.13 10.283-4.196 23.649-20.531 39.983-13.679 13.678-25.385 16.695-34.791 19.119-7.652 1.971-13.18 3.394-21.064 11.28-17.023 17.023-6.009 31.467-30.4 55.856z" fill="#5ecbf1"/></g><g id="XMLID_3248_"><path id="XMLID_3327_" d="m419.353 310.606-21.213-21.213c16.984-16.984 6.013-31.471 30.399-55.856 13.679-13.678 25.385-16.694 34.791-19.118 7.651-1.972 13.18-3.395 21.065-11.28l21.213 21.213c-13.679 13.678-25.385 16.695-34.791 19.119-7.651 1.971-13.18 3.395-21.064 11.28-17.024 17.022-6.009 31.465-30.4 55.855z" fill="#90cc1c"/></g><g id="XMLID_3247_"><path id="XMLID_3326_" d="m465.002 135h30v30h-30z" fill="#ffa951"/></g><g id="XMLID_3243_"><path id="XMLID_3325_" d="m345.002 240h30v30h-30z" fill="#4793ff"/></g><g id="XMLID_3221_"><g><path id="XMLID_131_" d="m255.002 120h30v30h-30z" fill="#b9dd39"/></g></g><g id="XMLID_3220_"><path id="XMLID_3323_" d="m375.002 0h30v30h-30z" fill="#5ecbf1"/></g><g id="XMLID_3218_"><g><path id="XMLID_128_" d="m165.002 30h30v30h-30z" fill="#b9dd39"/></g></g><g id="XMLID_3217_"><path id="XMLID_3216_" d="m435.002 330h30v30h-30z" fill="#ffa951"/></g><path id="XMLID_3443_" d="m246.902 263.099-60.55-73.18-62.678-50.048c-4.601 13.801-9.867 29.601-14.467 43.401 17.702 23.44 31.752 42.045 49.077 64.987 17.017 12.48 41.003 30.073 59.683 43.773l22.032-6.781z" fill="#ffd845"/><g fill="#ffa951"><path id="XMLID_3444_" d="m246.902 263.099c-10.126 10.126-18.808 18.809-28.935 28.935l48.365 59.684 60.395 49.078c13.801-4.602 29.601-9.867 43.402-14.468l-54.735-66.741z"/><path id="XMLID_3445_" d="m122.509 387.492 19.909 35.819 41.123 25.212c13.543-4.515 97.796-32.599 111.369-37.123l-39.576-59.684-58.578-38.471c-19.997 19.997-62.599 62.6-74.247 74.247z"/><path id="XMLID_3447_" d="m.446 509.555 151.275-50.425-12.888-30.211-37.537-20.214c-5.603 5.604-95.246 95.246-100.85 100.85z"/><path id="XMLID_3449_" d="m217.968 292.033c-6.039-6.039-102.721-102.722-108.76-108.761-3.709 11.129-6.897 20.69-10.606 31.819 11.871 11.871 86.205 86.205 98.154 98.154l21.213-2.64v-18.572z"/></g><path id="XMLID_3450_" d="m196.755 313.246 98.154 98.154c11.129-3.709 20.691-6.896 31.819-10.605-6.039-6.04-102.722-102.723-108.761-108.762-7.418 7.419-13.793 13.794-21.212 21.213z" fill="#ff8c59"/><path id="XMLID_3451_" d="m122.509 387.492c-7.419-7.418-53.594-53.593-61.031-61.03l-5.303 15.909-5.304 15.91c6.1 6.1 44.285 44.284 50.425 50.424l17.537-3.786z" fill="#ffa951"/><path id="XMLID_3452_" d="m101.296 408.705c6.1 6.1 44.285 44.285 50.425 50.425 11.129-3.709 20.691-6.896 31.82-10.606-7.419-7.419-53.594-53.594-61.032-61.031-7.419 7.418-13.794 13.793-21.213 21.212z" fill="#ff8c59"/><path id="XMLID_3453_" d="m487.896 1.393c-17.288 17.287-31.165 5.707-55.852 30.396-24.729 24.728-13.041 38.496-30.394 55.85-16.891 16.889-31.696 6.239-55.855 30.399-24.425 24.425-13.145 38.601-30.399 55.855 3.622 3.622 6.733 6.734 10.356 10.357l16.317-6.004 16.317-26.632c3.28-8.055 11.904-17.286 20.984-20.984l37.237-25.711 28.029-39.556c1.567-3.85 3.936-7.678 8.619-12.361 7.935-7.937 7.333-5.095 41.745-24.937l3.25-16.315c-3.621-3.622-6.733-6.734-10.354-10.357z" fill="#ff3f5c"/><path id="XMLID_3454_" d="m465.619 44.382c10.66-4.341 25.226-3.512 43.489-21.775l-10.856-10.857z" fill="#ca2e43"/><path id="XMLID_3455_" d="m336.608 195.106c18.258-18.257 17.444-32.85 21.778-43.492l-32.635 32.636z" fill="#ca2e43"/><path id="XMLID_3456_" d="m422.863 108.852c18.255-18.256 17.44-32.842 21.775-43.488l-65.267 65.267c10.656-4.341 25.227-3.515 43.492-21.779z" fill="#ca2e43"/><path id="XMLID_3457_" d="m119.623 93.394c-7.419 7.419-13.794 13.794-21.213 21.213 29.558 29.558 118.941 118.94 148.492 148.492h18.431l2.782-21.213c-17.444-17.445-132.275-132.276-148.492-148.492z" fill="#ffa951"/><path id="XMLID_3458_" d="m395.396 411.592c7.419-7.419 13.794-13.794 21.213-21.213-16.153-16.153-131.035-131.035-148.493-148.493-7.419 7.419-13.794 13.794-21.213 21.213 22.85 22.85 130.857 130.858 148.493 148.493z" fill="#ff8c59"/></g></svg>