<svg id="Capa_1" enable-background="new 0 0 512 512" height="512" viewBox="0 0 512 512" width="512" xmlns="http://www.w3.org/2000/svg"><g><g><g><path d="m115.387 246.566c-65.782-7.984-115.387-64.043-115.387-130.398v-15h108.607v30h-77.499c6.619 44.433 42.195 80.07 87.894 85.617z" fill="#fedd61"/></g></g><g><g><path d="m310.208 246.566-3.615-29.781c45.698-5.547 81.274-41.184 87.894-85.617h-77.499v-30h108.607v15c0 66.355-49.606 122.414-115.387 130.398z" fill="#fed200"/></g></g><g><path d="m197.632 370.856h15l7.982-36.199-7.982-43.063h-15z" fill="#fedd61"/><path d="m212.632 291.594h15v79.262h-15z" fill="#fed200"/><path d="m92.604 0v50.198h120.028l23.836-26.66-23.836-23.538z" fill="#fee481"/></g><g><path d="m92.604 50.198v141.169c0 66.183 53.844 120.027 120.027 120.027l22.845-143.196-22.845-118z" fill="#fed200"/><path d="m88.323 497h124.309l25.817-68.215-25.817-72.929h-124.309z" fill="#c8885e"/></g><path d="m212.632 0h120.027v50.198h-120.027z" fill="#fed200"/><path d="m332.659 191.367v-141.169h-120.027v261.196c66.183 0 120.027-53.844 120.027-120.027z" fill="#f8b400"/><path d="m329.605 497-.467-141.144h-116.506v141.144z" fill="#9f5f4e"/><g><path d="m39.227 482v30h173.405l12.937-14.848-12.937-15.152z" fill="#9f5f4e"/></g><path d="m212.632 482h173.406v30h-173.406z" fill="#714437"/><g><g><g><path d="m389.475 266.951c-45.579 0-85.346 24.888-106.451 61.815-10.228 17.896-10.282 103.332-.141 121.172 21.069 37.063 60.911 62.062 106.592 62.062 67.669 0 67.669-245.049 0-245.049z" fill="#edf5ff"/><g fill="#d6e8fd"><path d="m442.783 358.708 52.816-30.505c-21.187-36.615-60.777-61.251-106.123-61.252v60.968z"/><path d="m336.168 420.254v-61.559l-52.815-30.493c-10.429 18.025-16.402 38.951-16.402 61.273s5.972 43.248 16.401 61.272z"/></g><g><path d="m442.79 420.254-.002.001 52.812 30.491c10.428-18.024 16.4-38.949 16.4-61.271s-5.972-43.247-16.401-61.272l-52.826 30.499z" fill="#bcdefd"/></g></g></g><path d="m389.475 451.033v60.967c45.345-.001 84.937-24.637 106.124-61.253l-52.812-30.491z" fill="#d6e8fd"/><path d="m389.475 451.033 53.311-30.777-.003-.002.001-61.559-53.309-30.776-53.307 30.776v61.559l.002.001z" fill="#2d6994"/><path d="m442.786 420.256-.002-61.561-53.309-30.776v123.114z" fill="#2d5177"/></g></g></svg>