<svg id="Capa_1" enable-background="new 0 0 510 510" height="512" viewBox="0 0 510 510" width="512" xmlns="http://www.w3.org/2000/svg"><g><g><path d="m29 59h30v30h-30z" fill="#83d947"/></g><g><path d="m449 239h30v30h-30z" fill="#32bea6"/></g><path d="m239 434v30h15l10-15-10-15z" fill="#9d6b5d"/><path d="m254 434h15v30h-15z" fill="#895050"/><path d="m240 0v120h15l10-60-10-60z" fill="#ff6b6b"/><path d="m320.459 54.541h60.001v30h-60.001z" fill="#ffb454" transform="matrix(.707 -.707 .707 .707 53.475 268.18)"/><path d="m335.46 230.459h30v60.001h-30z" fill="#ffb454" transform="matrix(.707 -.707 .707 .707 -81.526 324.099)"/><path d="m75 330h30v60h-30z" fill="#4793ff"/><path d="m75 450h30v60h-30z" fill="#4793ff"/><path d="m120 405h60v30h-60z" fill="#4793ff"/><path d="m0 405h60v30h-60z" fill="#4793ff"/><g fill="#ffb454"><path d="m405 330h30v60h-30z"/><path d="m405 450h30v60h-30z"/><path d="m450 405h60v30h-60z"/><path d="m330 405h60v30h-60z"/></g><path d="m255 0h15v120h-15z" fill="#ff3d7d"/><path d="m240 210v120h15l10-60-10-60z" fill="#ff6b6b"/><path d="m255 210h15v120h-15z" fill="#ff3d7d"/><path d="m129.54 245.46h60.001v30h-60.001z" fill="#ffe278" transform="matrix(.707 -.707 .707 .707 -137.444 189.099)"/><path d="m144.541 39.54h30v60.001h-30z" fill="#ffe278" transform="matrix(.707 -.707 .707 .707 -2.444 133.18)"/><path d="m300 150h120v30h-120z" fill="#ff3d7d"/><path d="m90 150h120v30h-120z" fill="#ff6b6b"/></g></svg>