<?xml version="1.0" encoding="iso-8859-1"?>
<!-- Generator: Adobe Illustrator 19.0.0, SVG Export Plug-In . SVG Version: 6.00 Build 0)  -->
<svg version="1.1" id="Capa_1" xmlns="http://www.w3.org/2000/svg" xmlns:xlink="http://www.w3.org/1999/xlink" x="0px" y="0px"
	 viewBox="0 0 512.002 512.002" style="enable-background:new 0 0 512.002 512.002;" xml:space="preserve">
<path style="fill:#F5F7FA;" d="M271.514,186.186c0-64.223,52.133-116.356,116.356-116.356s116.356,52.133,116.356,116.356v116.356
	H271.514V186.186z"/>
<path style="fill:#E6E9ED;" d="M387.871,69.83c-5.272,0-10.423,0.471-15.514,1.151c56.876,7.622,100.842,56.254,100.842,115.205
	v116.356h31.028V186.186C504.227,121.963,452.094,69.83,387.871,69.83z"/>
<path style="fill:#FFDECF;" d="M449.928,333.57h-38.787v-15.817l-0.772-2.788c-7.137,2.016-14.742,3.091-22.499,3.091
	s-15.362-1.075-22.497-3.091l-0.774,2.788v15.817h-38.785c-29.937,0-54.301,24.362-54.301,54.301v54.299h232.713v-54.299
	C504.227,357.932,479.865,333.57,449.928,333.57z"/>
<path style="fill:#FFCDBE;" d="M449.928,333.57H418.9c29.937,0,54.299,24.362,54.299,54.301v54.299h31.028v-54.299
	C504.227,357.932,479.865,333.57,449.928,333.57z"/>
<path style="fill:#FFDECF;" d="M453.655,131.888c-15.514-18.924-39.255-31.03-65.785-31.03c-47.164,0-85.326,38.332-85.326,85.328
	v46.542c0,28.862,14.272,54.452,36.3,69.815c7.908,5.591,16.908,9.939,26.529,12.423c7.135,2.016,14.74,3.091,22.497,3.091
	c7.757,0,15.362-1.075,22.499-3.091c9.621-2.485,18.621-6.832,26.529-12.423c22.029-15.362,36.3-40.952,36.3-69.815v-46.542
	C473.199,165.552,465.911,146.644,453.655,131.888z"/>
<path style="fill:#FFCDBE;" d="M453.655,131.888c-15.514-18.924-39.255-31.03-65.785-31.03c-5.377,0-10.605,0.562-15.696,1.515
	c20.227,3.666,38.013,14.334,50.452,29.515c12.256,14.756,19.544,33.664,19.544,54.299v46.542c0,28.862-14.272,54.452-36.302,69.815
	c-7.908,5.591-16.908,9.939-26.527,12.423c-2.258,0.636-4.636,1.016-6.985,1.454c5.06,0.97,10.211,1.636,15.514,1.636
	c7.757,0,15.362-1.075,22.499-3.091c9.621-2.485,18.621-6.832,26.529-12.423c22.029-15.362,36.3-40.952,36.3-69.815v-46.542
	C473.199,165.552,465.911,146.644,453.655,131.888z"/>
<path style="fill:#FFCE54;" d="M380.114,162.158l-77.569,31.785v-7.757c0-46.996,38.163-85.328,85.326-85.328
	c26.529,0,50.271,12.106,65.785,31.03L380.114,162.158z"/>
<g>
	<path style="fill:#F6BB42;" d="M422.627,131.888c2.576,3.105,4.802,6.484,6.909,9.922l24.119-9.922
		c-15.514-18.924-39.255-31.03-65.785-31.03c-5.377,0-10.605,0.562-15.696,1.515C392.402,106.039,410.188,116.707,422.627,131.888z"
		/>
	<path style="fill:#F6BB42;" d="M473.199,193.943l-93.085-31.785l73.541-30.27c12.256,14.756,19.544,33.664,19.544,54.299
		L473.199,193.943L473.199,193.943z"/>
</g>
<path style="fill:#DCA746;" d="M453.655,131.888l-24.119,9.922c7.468,12.15,11.862,26.287,12.377,41.453l31.286,10.68v-7.757
	C473.199,165.552,465.911,146.644,453.655,131.888z"/>
<polygon style="fill:#E6E9ED;" points="162.917,349.084 193.945,333.57 155.932,442.17 124.904,442.17 85.346,333.57 
	116.373,349.084 139.644,333.57 "/>
<path style="fill:#F5F7FA;" d="M139.644,318.056c-20.635,0-39.556-7.286-54.299-19.544v0.152v34.906l31.028,15.514l23.271-15.514
	l23.273,15.514l31.028-15.514v-34.906v-0.152C179.203,310.77,160.281,318.056,139.644,318.056z"/>
<g>
	<path style="fill:#656D78;" d="M54.318,442.17H7.774v-54.299c0-29.939,24.348-54.301,54.301-54.301h23.271l39.558,108.599H62.075
		h-7.757V442.17z"/>
	<path style="fill:#656D78;" d="M271.514,387.871v54.299H155.932l38.013-108.599h23.271
		C247.153,333.57,271.514,357.932,271.514,387.871z"/>
</g>
<path style="fill:#515760;" d="M217.216,333.57h-23.271l-0.259,0.758c26.363,3.697,46.8,26.166,46.8,53.543v54.299h31.028v-54.299
	C271.514,357.932,247.153,333.57,217.216,333.57z"/>
<path style="fill:#FFDECF;" d="M205.429,131.888c-15.514-18.924-39.255-31.03-65.785-31.03c-47.162,0-85.326,38.332-85.326,85.328
	v46.542c0,28.862,14.272,54.452,36.3,69.815c7.908,5.591,16.908,9.939,26.529,12.423c7.135,2.016,14.74,3.091,22.497,3.091
	s15.364-1.075,22.499-3.091c9.621-2.485,18.621-6.832,26.529-12.423c22.029-15.362,36.3-40.952,36.3-69.815v-46.542
	C224.973,165.552,217.686,146.644,205.429,131.888z"/>
<path style="fill:#FFCDBE;" d="M205.429,131.888c-15.514-18.924-39.255-31.03-65.785-31.03c-5.377,0-10.605,0.562-15.696,1.515
	c20.227,3.666,38.013,14.334,50.452,29.515c12.256,14.756,19.544,33.664,19.544,54.299v46.542c0,28.862-14.272,54.452-36.3,69.815
	c-7.908,5.591-16.91,9.939-26.529,12.423c-2.258,0.636-4.636,1.016-6.985,1.454c5.06,0.97,10.211,1.636,15.514,1.636
	c7.757,0,15.364-1.075,22.499-3.091c9.621-2.485,18.621-6.832,26.529-12.423c22.029-15.362,36.3-40.952,36.3-69.815v-46.542
	C224.973,165.552,217.686,146.644,205.429,131.888z"/>
<path style="fill:#965353;" d="M193.945,116.374c0,0,46.542,0,31.028,77.569l-15.514-31.028c0,0-48.709,15.514-77.572,15.514
	c-28.86,0-54.299-15.514-54.299-15.514l-23.271,31.028C38.804,69.83,131.887,85.344,193.945,85.344
	C193.945,116.374,193.945,116.374,193.945,116.374z"/>
<path style="fill:#864B4C;" d="M193.945,116.374c0,0,0,0,0-31.03c-9.743,0-20.287-0.364-31.028-0.515c0,0,0-10.999,0,35.559
	c0,27.165,29.072,15.302,29.072,47.572c7.561-2.121,17.469-5.044,17.469-5.044l15.514,31.028
	C240.487,116.374,193.945,116.374,193.945,116.374z"/>
<path style="fill:#F5F7FA;" d="M318.058,403.385c0-12.726,6.044-23.893,15.514-30.876v-0.152c6.363-4.82,14.591-7.759,23.271-7.759
	c12.726,0,23.893,6.363,31.028,15.819c7.137-9.456,18.302-15.819,31.03-15.819c8.68,0,16.908,2.939,23.271,7.759
	c9.468,7.135,15.514,18.302,15.514,31.028v38.785h-7.757H325.815h-7.757V403.385z"/>
<path d="M493.829,343.995c-5.699-5.699-12.339-10.167-19.734-13.29c-7.605-3.221-15.692-4.863-24.035-4.879
	c-0.04-0.001-0.081-0.006-0.121-0.006h-31.03v-5.327c7.241-2.567,14.073-6.006,20.368-10.191h64.964
	c4.285,0,7.757-3.473,7.757-7.757V186.217c0-0.014,0.002-0.026,0.002-0.04c0-12.918-1.986-25.67-5.895-37.875
	c-3.784-11.821-9.318-22.992-16.444-33.179c-1.458-2.069-3.837-3.31-6.371-3.31c-1.593,0-3.123,0.486-4.437,1.406
	c-1.696,1.179-2.834,2.958-3.186,4.996c-0.362,2.038,0.093,4.096,1.273,5.792v0.01c12.778,18.279,19.531,39.763,19.547,62.134
	c0,0.01-0.002,0.02-0.002,0.03v108.605H457.2c14.77-16.481,23.769-38.238,23.769-62.06v-38.787v-7.759
	c0-22.188-7.807-42.583-20.812-58.594c-0.304-0.459-0.651-0.876-1.034-1.251c-17.091-20.312-42.683-33.244-71.243-33.244
	c-51.329,0-93.089,41.76-93.089,93.089v7.66c0,0.018,0,0.036,0,0.053v0.046v38.787c0,23.821,8.998,45.578,23.769,62.06h-39.285
	V186.182c0-0.012-0.002-0.023-0.002-0.035c0.013-14.659,2.879-28.873,8.533-42.241c5.461-12.918,13.3-24.532,23.271-34.513
	c9.991-9.991,21.605-17.82,34.523-23.282c13.383-5.668,27.604-8.533,42.28-8.533c12.949,0,25.608,2.255,37.626,6.692
	c11.604,4.282,22.341,10.498,31.896,18.472c1.397,1.169,3.165,1.81,4.975,1.81c2.306,0,4.478-1.024,5.957-2.793
	c1.324-1.592,1.954-3.599,1.769-5.668c-0.186-2.058-1.169-3.93-2.751-5.254c-10.911-9.112-23.178-16.217-36.478-21.12
	c-13.745-5.078-28.215-7.653-42.995-7.653c-16.755,0-33.014,3.279-48.32,9.753c-14.78,6.257-28.049,15.203-39.447,26.601
	c-11.397,11.398-20.344,24.678-26.601,39.457c-6.464,15.297-9.753,31.545-9.753,48.3c0,0.014,0.002,0.026,0.002,0.04v116.328
	c0,4.284,3.472,7.757,7.757,7.757h64.964c6.296,4.186,13.127,7.624,20.368,10.191v5.327h-31.03c-0.032,0-0.064,0.005-0.095,0.005
	c-14.908,0.019-29.305,5.394-40.547,15.15c-3.227,2.803-3.579,7.705-0.776,10.942c1.469,1.696,3.61,2.679,5.864,2.679
	c1.861,0,3.661-0.683,5.078-1.903c4.147-3.589,8.833-6.402,13.921-8.336c5.273-2.006,10.836-3.019,16.554-3.02v27.402
	c-9.515,8.528-15.516,20.902-15.516,34.655v31.027H279.27v-46.542c0-8.378-1.644-16.507-4.871-24.15
	c-3.134-7.395-7.602-14.024-13.301-19.733c-5.699-5.699-12.338-10.167-19.724-13.301c-7.619-3.222-15.71-4.854-24.047-4.868
	c-0.039-0.001-0.077-0.006-0.115-0.006h-15.516v-23.767c19.033-17.054,31.03-41.806,31.03-69.31v-38.095
	c6.269-32.014,3.204-55.886-9.141-70.939c-7.128-8.691-15.773-12.376-21.889-13.937V85.336c0-4.284-3.472-7.757-7.757-7.757
	c-5.953,0-12.147-0.144-18.708-0.296c-6.873-0.16-13.98-0.325-21.137-0.325c-32.102,0-67.845,3.313-89.537,27.886
	c-17.145,19.422-23.036,48.721-18.011,89.553v38.345c0,27.504,11.997,52.256,31.03,69.31v23.767H62.063
	c-0.04,0-0.08,0.006-0.12,0.006c-8.344,0.016-16.432,1.647-24.036,4.868c-7.395,3.134-14.035,7.602-19.734,13.301
	c-5.688,5.698-10.167,12.338-13.29,19.733C1.644,371.371,0,379.5,0,387.878v54.289c0,4.281,3.486,7.757,7.757,7.757
	c4.282,0,7.757-3.476,7.757-7.757v-54.289c0.011-12.421,4.851-24.109,13.632-32.91c8.801-8.791,20.488-13.632,32.92-13.632
	c0.02,0,0.039-0.003,0.06-0.003h17.777l33.868,93.086H62.063v-23.27c0-4.284-3.472-7.757-7.757-7.757
	c-4.284,0-7.757,3.473-7.757,7.757v23.27h-7.774c-4.271,0-7.757,3.486-7.757,7.757c0,4.282,3.486,7.757,7.757,7.757h15.47
	c0.021,0,0.04,0.003,0.061,0.003c0.02,0,0.039-0.003,0.061-0.003h70.419c0.022,0,0.043,0.005,0.066,0.005
	c0.039,0,0.078-0.004,0.117-0.005h30.851c0.02,0,0.04,0.005,0.061,0.005c0.022,0,0.043-0.005,0.065-0.005h68.966
	c0.021,0,0.04,0.003,0.061,0.003c0.02,0,0.039-0.003,0.061-0.003h46.483H318c0.021,0,0.04,0.003,0.061,0.003
	s0.039-0.003,0.061-0.003h85.065c0.063,0,0.124,0,0.187,0c0.01,0,0.01,0,0.02,0h54.242c0.021,0,0.04,0.003,0.061,0.003
	c0.02,0,0.039-0.003,0.061-0.003h46.487c2.038,0,4.044-0.827,5.481-2.265c1.448-1.448,2.276-3.444,2.276-5.492v-54.299
	c0-8.378-1.644-16.507-4.881-24.15C503.996,356.333,499.517,349.704,493.829,343.995z M250.125,354.968
	c8.791,8.801,13.632,20.489,13.632,32.91v0.011v46.531h-31.03v-23.27c0-4.284-3.472-7.757-7.757-7.757
	c-4.284,0-7.757,3.473-7.757,7.757v23.27h-50.395l32.624-93.086h17.714c0.02,0,0.039,0.003,0.06,0.003
	C229.637,341.336,241.324,346.177,250.125,354.968z M186.184,328.782l-22.715,11.357l-16.073-10.715v-3.933
	c14.037-1.164,27.2-5.452,38.789-12.169v15.46H186.184z M76.19,115.111c9.883-11.195,26.867-22.638,77.907-22.638
	c6.977,0,13.993,0.163,20.777,0.32c3.882,0.09,7.637,0.177,11.31,0.234v23.353c0,2.058,0.777,4.031,2.232,5.485
	c1.454,1.454,3.387,2.271,5.444,2.271c0.001,0,0.002,0,0.002,0c0.423,0.009,10.448,0.329,17.922,9.647
	c5.994,7.473,8.867,18.871,8.561,33.561l-3.952-7.904c-1.71-3.419-5.653-5.081-9.294-3.921
	c-0.475,0.151-47.832,15.149-75.217,15.149c-26.271,0-50.03-14.24-50.259-14.378c-3.409-2.084-7.849-1.234-10.25,1.965L60.39,172.9
	C59.619,146.976,64.84,127.967,76.19,115.111z M62.063,232.742v-36.215l17.712-23.616c9.771,4.877,29.825,13.272,52.107,13.272
	c23.748,0,59.168-9.692,73.566-13.944l11.767,23.533v36.97c0,42.767-34.8,77.561-77.575,77.561S62.063,275.509,62.063,232.742z
	 M131.881,325.492v3.933l-16.073,10.715l-22.716-11.358v-15.46C104.681,320.04,117.844,324.328,131.881,325.492z M99.282,349.222
	l13.48,6.739c0.001,0.001,0.002,0.002,0.003,0.002l0.132,0.066c0.114,0.057,0.231,0.098,0.348,0.149
	c0.145,0.064,0.289,0.133,0.438,0.188c0.188,0.07,0.378,0.122,0.568,0.176c0.1,0.028,0.198,0.064,0.298,0.088
	c0.262,0.063,0.523,0.108,0.786,0.143c0.037,0.005,0.074,0.015,0.111,0.019c0.305,0.036,0.61,0.057,0.914,0.057
	c0.003,0,0.007-0.001,0.01-0.001c0.001,0,0.002,0,0.003,0c0.042,0,0.085-0.008,0.126-0.009c0.316-0.006,0.63-0.024,0.941-0.068
	c0.171-0.024,0.338-0.07,0.508-0.106c0.184-0.039,0.371-0.069,0.551-0.122c0.164-0.047,0.322-0.113,0.484-0.172
	c0.188-0.067,0.375-0.13,0.557-0.211c0.139-0.063,0.274-0.14,0.41-0.212c0.2-0.104,0.398-0.21,0.589-0.332
	c0.042-0.027,0.088-0.045,0.129-0.073l18.97-12.646l18.97,12.646c0.041,0.028,0.086,0.045,0.127,0.072
	c0.194,0.124,0.395,0.231,0.598,0.337c0.133,0.07,0.265,0.145,0.401,0.207c0.185,0.083,0.377,0.147,0.567,0.216
	c0.159,0.057,0.315,0.122,0.475,0.168c0.184,0.052,0.372,0.084,0.56,0.123c0.167,0.034,0.332,0.081,0.501,0.104
	c0.311,0.043,0.625,0.062,0.941,0.068c0.041,0.001,0.084,0.009,0.126,0.009h0.003c0.003,0,0.007,0.001,0.01,0.001
	c0.304,0,0.609-0.02,0.914-0.057c0.037-0.005,0.075-0.014,0.112-0.019c0.263-0.035,0.524-0.08,0.785-0.143
	c0.1-0.024,0.197-0.059,0.296-0.087c0.191-0.055,0.382-0.107,0.57-0.177c0.149-0.055,0.293-0.124,0.438-0.188
	c0.115-0.051,0.233-0.092,0.348-0.149l0.132-0.066c0.001-0.001,0.003-0.001,0.004-0.002l13.774-6.886l-29.911,85.346H130.28
	L99.282,349.222z M451.111,141.326c8.453,11.881,13.646,26.225,14.265,41.735l-63.225-21.632L451.111,141.326z M387.879,108.607
	c20.17,0,38.562,7.743,52.375,20.407l-129.852,53.317C312.415,141.338,346.395,108.607,387.879,108.607z M310.303,199.142
	l70.064-28.768l85.087,29.112v33.242c0,42.775-34.8,77.576-77.576,77.576s-77.576-34.8-77.576-77.576L310.303,199.142
	L310.303,199.142z M341.333,341.333h23.273c4.285,0,7.757-3.473,7.757-7.757v-9.059c5.048,0.85,10.229,1.3,15.516,1.3
	c5.286,0,10.468-0.449,15.516-1.3v9.059c0,4.284,3.472,7.757,7.757,7.757h23.273v18.185c-4.856-1.723-10.077-2.669-15.516-2.669
	c-11.645,0-22.56,4.282-31.03,11.98c-8.47-7.697-19.384-11.98-31.03-11.98c-5.439,0-10.66,0.946-15.516,2.669V341.333z
	 M325.817,434.42v-31.027c0-9.932,4.697-18.783,11.98-24.466c0.3-0.195,0.584-0.411,0.853-0.645
	c5.117-3.718,11.404-5.919,18.199-5.919c9.801,0,18.843,4.594,24.809,12.602c1.464,1.966,3.77,3.124,6.221,3.124
	c2.45,0,4.757-1.158,6.221-3.124c5.966-8.009,15.008-12.602,24.809-12.602c17.11,0,31.03,13.92,31.03,31.03v31.027H325.817z
	 M496.486,434.42h-31.034v-31.027c0-13.752-6-26.126-15.514-34.654v-27.403c12.431,0.001,24.116,4.841,32.916,13.632
	c8.781,8.801,13.621,20.489,13.631,32.91L496.486,434.42L496.486,434.42z"/>
<g>
</g>
<g>
</g>
<g>
</g>
<g>
</g>
<g>
</g>
<g>
</g>
<g>
</g>
<g>
</g>
<g>
</g>
<g>
</g>
<g>
</g>
<g>
</g>
<g>
</g>
<g>
</g>
<g>
</g>
</svg>
