<svg height="512" viewBox="0 0 60 60" width="512" xmlns="http://www.w3.org/2000/svg"><g id="Page-1" fill="none" fill-rule="evenodd"><g id="027---Internet-Dating" fill-rule="nonzero"><circle id="Oval" cx="30" cy="30" fill="#02a9f4" r="29"/><path id="Shape" d="m30 1c-.5 0-1 0-1.5 0 16.0162576.00000024 28.9999996 12.9837424 28.9999996 29s-12.983742 28.9999998-28.9999996 29h1.5c16.0162576-.0000002 28.9999996-12.9837424 28.9999996-29s-12.983742-28.99999976-28.9999996-29z" fill="#0377bc"/><path id="Shape" d="m30 23c1.4027358-2.0507409 3.5595965-3.4634846 6-3.93 4.65-.81 8.81 3.09 9 8 .23 6.21-5.22 10-13.71 17.41-.7415621.6176669-1.8184379.6176669-2.56 0-8.5-7.32-13.95-11.16-13.73-17.37.18-4.91 4.34-8.81 9-8 2.4339477.4566468 4.5897772 1.854343 6 3.89z" fill="#e91e63"/><path id="Shape" d="m19 29c-.5522847 0-1-.4477153-1-1-.149961-1.8301798.5464262-3.6282589 1.89-4.88 1.2359263-.9080893 2.7902043-1.2695493 4.3-1 .3572656.0678805.6511788.3212035.7710254.6645448s.047419.7245392-.19 1c-.237419.2754609-.6037598.4033357-.9610254.3354552-.93357-.1475097-1.8878609.0749191-2.66.62-.8403815.8669754-1.2603968 2.0576274-1.15 3.26 0 .2652165-.1053568.5195704-.2928932.7071068s-.4418903.2928932-.7071068.2928932z" fill="#f5f5f5"/><g fill="#000"><path id="Shape" d="m30 0c-16.5685425 0-30 13.4314575-30 30s13.4314575 30 30 30 30-13.4314575 30-30c0-7.9564947-3.1607052-15.5871121-8.7867966-21.21320344-5.6260913-5.62609135-13.2567087-8.78679656-21.2132034-8.78679656zm20.81 11.29c-.9734581.4605626-1.9755258.8580494-3 1.19-1.5497271-3.01816403-3.6568273-5.71565945-6.21-7.95 3.4992135 1.60110208 6.6335708 3.90167269 9.21 6.76zm7.19 17.71h-6c-.0907976-5.0710892-1.1958424-10.0726919-3.25-14.71 1.1623511-.396015 2.2951868-.8738778 3.39-1.43 3.6075209 4.626853 5.65873 10.2764289 5.86 16.14zm-5.88 18.14c-1.0948132-.5561222-2.2276489-1.033985-3.39-1.43 2.0610387-4.6358806 3.1728966-9.637541 3.27-14.71h6c-.2070157 5.8658284-2.2653077 11.51563-5.88 16.14zm-14.42-2.14c-.2599175-.0530985-.5302825-.0007425-.751589.1455449-.2213065.1462873-.3754164.3745164-.428411.6344551-1.52 7.43-4.07 12.22-6.52 12.22s-5-4.79-6.52-12.21c-.0714531-.3572656-.3280774-.6492728-.6732051-.7660254-.3451276-.1167526-.7263255-.040513-1 .2s-.398248.6087598-.3267949.9660254c1 5 2.49 8.84 4.22 11.17-4.7-1.44-8.78-5.22-11.62-10.43 1.29-.36 2.71-.68 4.23-1 .4079502.0220061.7882631-.2063571.9605712-.5767859.1723082-.3704288.1019569-.8084224-.177689-1.1062575-.2796459-.2978352-.7123438-.3956111-1.0928822-.2469566-1.6082846.2822978-3.2005094.6494776-4.77 1.1-2.019561-4.4330545-3.1184064-9.2298721-3.23-14.1h1.56c.5522847 0 1-.4477153 1-1s-.4477153-1-1-1h-1.56c.0882175-4.8686437 1.1632314-9.6687852 3.16-14.11 1.5923164.4563105 3.2079727.8268433 4.84 1.11h.18c.3572656.0321539.7045465-.1287336.9110254-.4220577s.2407867-.674522.09-1-.4637598-.5457884-.8210254-.5779423c-1.52-.28-2.94-.6-4.23-1 2.84-5.21 6.94-9 11.66-10.43-1.79 2.43-3.24 6.2-4.27 11.24-.0714531.3572656.0531204.7255124.3267949.9660254s.6548724.3167526 1 .2c.3451277-.1167526.601752-.4087598.6732051-.7660254 1.48-7.42 4.03-12.21 6.48-12.21s5 4.79 6.52 12.21c.0964736.4731232.5172392.8097357 1 .8h.2c.2599387-.0529946.4881678-.2071045.6344551-.428411.1462874-.2213065.1986434-.4916715.1455449-.751589-1-5-2.49-8.84-4.22-11.17 4.72 1.42 8.8 5.2 11.64 10.41-1.29.36-2.71.68-4.23 1-.5522847.0497056-.9597056.5377153-.91 1.09s.5377153.9597056 1.09.91h.18c1.6082846-.2822978 3.2005094-.6494776 4.77-1.1 1.9931366 4.4150871 3.0747282 9.1870148 3.18 14.03h-1.58c-.5522847 0-1 .4477153-1 1s.4477153 1 1 1h1.58c-.0882175 4.8686437-1.1632314 9.6687852-3.16 14.11-1.5758793-.4545794-3.1748-.8251018-4.79-1.11-.5522847-.0994113-1.0805887.2677153-1.18.82s.2677153 1.0805887.82 1.18c1.52.28 2.94.6 4.23 1-2.84 5.21-6.94 9-11.66 10.43 1.74-2.43 3.19-6.2 4.22-11.24.0560741-.2613928.0051491-.5343549-.1414053-.7579444-.1465545-.2235895-.3765346-.3791878-.6385947-.4320556zm-35.7-14h6c.09079763 5.0710892 1.19584243 10.0726919 3.25 14.71-1.1623511.396015-2.29518675.8738778-3.39 1.43-3.6075209-4.626853-5.65872998-10.2764289-5.86-16.14zm5.88-18.14c1.09481325.5561222 2.2276489 1.033985 3.39 1.43-2.06103873 4.6358806-3.17289661 9.637541-3.27 14.71h-6c.20701565-5.8658284 2.26530768-11.51563 5.88-16.14zm10.52-8.33c-2.5689694 2.24638412-4.6866856 4.96140494-6.24 8-1.0244742-.3319506-2.0265419-.7294374-3-1.19 2.5803653-2.87967028 5.7255547-5.19771573 9.24-6.81zm-9.21 44.18c.9742168-.4588138 1.9761721-.856256 3-1.19 1.5586313 3.0207037 3.6760501 5.7183766 6.24 7.95-3.5099669-1.597588-6.6548134-3.8983632-9.24-6.76zm32.41 6.76c2.5639499-2.2316234 4.6813687-4.9292963 6.24-7.95 1.0244742.3319506 2.0265419.7294374 3 1.19-2.5851866 2.8616368-5.7300331 5.162412-9.24 6.76z"/><path id="Shape" d="m46 27.07c-.0853256-2.7855672-1.3682955-5.3988894-3.52-7.17-1.8451436-1.5384783-4.2727256-2.1892457-6.64-1.78-2.2598234.4190053-4.3151109 1.5803836-5.84 3.3-1.5223015-1.7176964-3.5737724-2.8789063-5.83-3.3-2.3672744-.4092457-4.7948564.2415217-6.64 1.78-2.1554421 1.7692255-3.4421902 4.3828188-3.53 7.17-.22 6 4.36 9.91 11.29 15.83l2.77 2.37c1.1032117.97169 2.7567883.97169 3.86 0l2.78-2.37c6.93-5.9 11.51-9.84 11.3-15.83zm-12.6 14.31-2.78 2.38c-.3512459.3203922-.8887541.3203922-1.24 0l-2.78-2.38c-6.72-5.74-10.78-9.21-10.6-14.23.0573265-2.2101535 1.0717545-4.2864467 2.78-5.69 1.1234695-.9361683 2.5376266-1.4523356 4-1.46.3352183.0029159.669648.0330146 1 .09 2.1574958.4262703 4.0650074 1.674041 5.32 3.48.2020019.2933988.5448265.4571928.9.43.3455015.0006914.6668845-.1770145.85-.47 1.2586888-1.8021533 3.1645102-3.0488184 5.32-3.48 1.7866229-.2927697 3.6121422.2074226 5 1.37 1.7373957 1.4030341 2.7718779 3.4975865 2.83 5.73.18 5.02-3.88 8.49-10.6 14.23z"/></g></g></g></svg>