<svg height="512" viewBox="0 0 58 58" width="512" xmlns="http://www.w3.org/2000/svg"><g id="Page-1" fill="none" fill-rule="evenodd"><g id="027---Internet-Dating" fill-rule="nonzero"><path id="Shape" d="m58 29c0 .34-.01.67-.03 1-.186156 6.0386902-2.2717044 11.8649285-5.96 16.65-.4.53-.83 1.05-1.28 1.55-5.2856178 6.0032962-12.8248766 9.5447924-20.82 9.78-.3.02-.6.02-.91.02s-.61 0-.91-.02c-7.9951234-.2352076-15.5343822-3.7767038-20.82-9.78-.45-.5-.88-1.02-1.28-1.55-3.6882956-4.7850715-5.77384397-10.6113098-5.96-16.65-.02-.33-.03-.66-.03-1s.01-.67.03-1c.18615603-6.0386902 2.2717044-11.8649285 5.96-16.65.4-.53.83-1.05 1.28-1.55 5.2856178-6.00329622 12.8248766-9.5447924 20.82-9.78.3-.02.6-.02.91-.02s.61 0 .91.02c7.9951234.2352076 15.5343822 3.77670378 20.82 9.78.45.5.88 1.02 1.28 1.55 3.6882956 4.7850715 5.773844 10.6113098 5.96 16.65.02.33.03.66.03 1z" fill="#35495e"/><path id="Shape" d="m57.97 30c.02-.33.03-.66.03-1s-.01-.67-.03-1h-6.99c-.0982783-5.0717602-1.2814712-10.0636748-3.47-14.64 1.5298409-.4884426 3.0045023-1.1352827 4.4-1.93.039619-.017688.0740466-.0452301.1-.08-.4-.53-.83-1.05-1.28-1.55-1.325995.7234905-2.7192221 1.3162818-4.16 1.77-3.85-6.72-9.86-11.18-16.66-11.55-.3-.02-.6-.02-.91-.02s-.61 0-.91.02c-6.8.37-12.81 4.83-16.66 11.55-1.4407779-.4537182-2.834005-1.0465095-4.16-1.77-.45.5-.88 1.02-1.28 1.55.02595344.0347699.060381.062312.1.08 1.39549773.7947173 2.87015907 1.4415574 4.4 1.93-2.18852879 4.5763252-3.37172167 9.5682398-3.47 14.64h-6.99c-.02.33-.03.66-.03 1s.01.67.03 1h6.99c.09827833 5.0717602 1.28147121 10.0636748 3.47 14.64-1.52984093.4884426-3.00450227 1.1352827-4.4 1.93-.039619.017688-.07404656.0452301-.1.08.4.53.83 1.05 1.28 1.55 1.325995-.7234905 2.7192221-1.3162818 4.16-1.77 3.85 6.72 9.86 11.18 16.66 11.55.3.02.6.02.91.02s.61 0 .91-.02c6.8-.37 12.81-4.83 16.66-11.55 1.4407779.4537182 2.834005 1.0465095 4.16 1.77.45-.5.88-1.02 1.28-1.55-.0259534-.0347699-.060381-.062312-.1-.08-1.3954977-.7947173-2.8701591-1.4415574-4.4-1.93 2.1885288-4.5763252 3.3717217-9.5682398 3.47-14.64zm-10.55 0h1.56c-.0938923 4.8699009-1.2472873 9.6609262-3.38 14.04-1.39-.39-2.91-.74-4.55-1.03-.364239-.0994756-.7534512.0146865-1.0062484.2951486-.2527972.280462-.3260712.6793982-.1894386 1.0313881.1366325.35199.4598724.5970107.835687.6334633 1.41.26 2.72.55 3.92.88-2.78 4.69-6.7 8.1-11.18 9.47 1.65-2.17 3.05-5.6 4.05-10.11.1215026-.541239-.218761-1.0784973-.76-1.2-.541239-.1215026-1.0784973.218761-1.2.76-1.5 6.82-4.06 11.23-6.52 11.23s-5.02-4.41-6.52-11.23c-.1215026-.5412391-.6587609-.8815026-1.2-.76s-.8815026.6587609-.76 1.2c1 4.51 2.4 7.94 4.05 10.11-4.48-1.37-8.4-4.78-11.18-9.47 1.2-.33 2.51-.62 3.92-.88.3758146-.0364526.6990545-.2814733.835687-.6334633.1366326-.3519899.0633586-.7509261-.1894386-1.0313881-.2527972-.2804621-.6420094-.3946242-1.0062484-.2951486-1.64.29-3.16.64-4.55 1.03-2.1327127-4.3790738-3.28610772-9.1700991-3.38-14.04h1.56c.5522847 0 1-.4477153 1-1s-.4477153-1-1-1h-1.56c.09389228-4.8699009 1.2472873-9.6609262 3.38-14.04 1.39.39 2.91.74 4.55 1.03.0593483.011603.1195523.0182924.18.02.5101582-.0092771.9315163-.4011519.9777115-.909299s-.2975894-.9695803-.7977115-1.070701c-1.41-.26-2.72-.55-3.92-.88 2.78-4.69 6.7-8.1 11.18-9.47-1.65 2.17-3.05 5.6-4.05 10.11-.0785984.3501203.0355606.7155765.2994744.9587049.2639139.2431284.6374877.3269919.98.22s.6019272-.3885846.6805256-.7387049c1.5-6.82 4.06-11.23 6.52-11.23s5.02 4.41 6.52 11.23c.1075289.4549973.512477.7773029.98.78.0736736-.0021562.1471453-.0088354.22-.02.5379769-.1261121.8759412-.6597398.76-1.2-1-4.51-2.4-7.94-4.05-10.11 4.48 1.37 8.4 4.78 11.18 9.47-1.2.33-2.51.62-3.92.88-.5001221.1011207-.8439067.5625539-.7977115 1.070701s.4675533.9000219.9777115.909299c.0604477-.0017076.1206517-.008397.18-.02 1.64-.29 3.16-.64 4.55-1.03 2.1327127 4.3790738 3.2861077 9.1700991 3.38 14.04h-1.56c-.5522847 0-1 .4477153-1 1s.4477153 1 1 1z" fill="#2c3e50"/><path id="Shape" d="m29 22.038c1.4060667-2.0477117 3.5612623-3.4600832 6-3.932 4.657-.806 8.815 3.093 9 8 .231 6.21-5.227 10.053-13.715 17.41-.7314267.6410256-1.8245733.6410256-2.556 0-8.488-7.357-13.946-11.2-13.715-17.41.182-4.91 4.34-8.809 9-8 2.4336144.4753203 4.5832358 1.8873335 5.986 3.932z" fill="#ff5364"/><path id="Shape" d="m18 27.979c-.5522847 0-1-.4477153-1-1-.1532266-1.8301589.5432995-3.6291799 1.889-4.879 1.2333482-.9142317 2.7869706-1.2842106 4.3-1.024.5327436.1140397.8761672.6335505.7723613 1.1683824s-.6166377.8881515-1.1533613.7946176c-.9342223-.1502458-1.8901773.070442-2.664.615-.8564521.8832864-1.2756731 2.1017391-1.144 3.325 0 .2652165-.1053568.5195704-.2928932.7071068s-.4418903.2928932-.7071068.2928932z" fill="#fb7b76"/></g></g></svg>